<?xml version="1.0" encoding="UTF-8"?>
<svg width="20px" height="24px" viewBox="0 0 20 24" version="1.1" xmlns="http://www.w3.org/2000/svg" xmlns:xlink="http://www.w3.org/1999/xlink">
    <defs></defs>
    <g id="Design-System--Style-Guide" stroke="none" stroke-width="1" fill="none" fill-rule="evenodd">
        <g id="Iconography" transform="translate(-222.000000, -1188.000000)" fill-rule="nonzero" fill="#6D7881">
            <g id="icon" transform="translate(200.000000, 1168.000000)">
                <path d="M24.4241706,41.6 L39.5758298,41.6 L39.5758298,32.6 L24.4241706,32.6 L24.4241706,41.6 Z M22,31.4005185 C22,30.7374905 22.5453242,30.2 23.2060496,30.2 L40.7939504,30.2 C41.4600332,30.2 42,30.7409764 42,31.4005185 L42,42.7994815 C42,43.4625095 41.4546758,44 40.7939504,44 L23.2060496,44 C22.5399668,44 22,43.4590236 22,42.7994815 L22,31.4005185 L22,31.4005185 Z M38.9691948,30.2 L36.5450241,30.2 L36.5450241,26.8 C36.5450241,24.3778531 34.5178728,22.4 31.9997041,22.4 C29.4815354,22.4 27.454384,24.3778531 27.454384,26.8 L27.454384,30.2 L25.0302134,30.2 L38.9691948,30.2 Z M25.0302134,26.8 C25.0302134,23.0444637 28.1505606,20 31.9997041,20 C35.8488475,20 38.9691948,23.0444637 38.9691948,26.8 L38.9691948,30.7975098 L25.0302134,30.7975098 L25.0302134,26.8 Z" id="icon-locked"></path>
            </g>
        </g>
    </g>
</svg>