<?xml version="1.0" encoding="UTF-8" standalone="no"?>
<svg width="24px" height="24px" viewBox="0 0 24 24" version="1.1" xmlns="http://www.w3.org/2000/svg" xmlns:xlink="http://www.w3.org/1999/xlink">
    <!-- Generator: Sketch 45.1 (43504) - http://www.bohemiancoding.com/sketch -->
    <title>icon-calendar</title>
    <desc>Created with Sketch.</desc>
    <defs>
        <path d="M22,24 L2,24 C0.8954305,24 0,23.1045695 0,22 L0,4 C0,2.8954305 0.8954305,2 2,2 L4,2 L4,4 L2,4 L2,22 L22,22 L22,4 L20,4 L20,2 L22,2 C23.1045695,2 24,2.8954305 24,4 L24,22 C24,23.1045695 23.1045695,24 22,24 L22,24 Z M17.3214286,17.1428571 L18.8214286,17.1428571 C19.2356421,17.1428571 19.5714286,17.5905724 19.5714286,18.1428571 C19.5714286,18.6951419 19.2356421,19.1428571 18.8214286,19.1428571 L17.3214286,19.1428571 C16.907215,19.1428571 16.5714286,18.6951419 16.5714286,18.1428571 C16.5714286,17.5905724 16.907215,17.1428571 17.3214286,17.1428571 L17.3214286,17.1428571 Z M17.3214286,13.1428571 L18.8214286,13.1428571 C19.2356421,13.1428571 19.5714286,13.5905724 19.5714286,14.1428571 C19.5714286,14.6951419 19.2356421,15.1428571 18.8214286,15.1428571 L17.3214286,15.1428571 C16.907215,15.1428571 16.5714286,14.6951419 16.5714286,14.1428571 C16.5714286,13.5905724 16.907215,13.1428571 17.3214286,13.1428571 L17.3214286,13.1428571 Z M3.85714286,10.4285714 C3.30485811,10.4285714 2.85714286,9.98085618 2.85714286,9.42857143 C2.85714286,8.87628668 3.30485811,8.42857143 3.85714286,8.42857143 L20.1428571,8.42857143 C20.6951419,8.42857143 21.1428571,8.87628668 21.1428571,9.42857143 C21.1428571,9.98085618 20.6951419,10.4285714 20.1428571,10.4285714 L3.85714286,10.4285714 Z M18,6 C17.4477153,6 17,5.55228475 17,5 L17,1 C17,0.44771525 17.4477153,0 18,0 C18.5522847,0 19,0.44771525 19,1 L19,5 C19,5.55228475 18.5522847,6 18,6 L18,6 Z M14,2 L16,2 L16,4 L14,4 L14,2 L14,2 Z M11.6071429,17.1428571 L13.1071429,17.1428571 C13.5213564,17.1428571 13.8571429,17.5905724 13.8571429,18.1428571 C13.8571429,18.6951419 13.5213564,19.1428571 13.1071429,19.1428571 L11.6071429,19.1428571 C11.1929293,19.1428571 10.8571429,18.6951419 10.8571429,18.1428571 C10.8571429,17.5905724 11.1929293,17.1428571 11.6071429,17.1428571 L11.6071429,17.1428571 Z M11.6071429,13.1428571 L13.1071429,13.1428571 C13.5213564,13.1428571 13.8571429,13.5905724 13.8571429,14.1428571 C13.8571429,14.6951419 13.5213564,15.1428571 13.1071429,15.1428571 L11.6071429,15.1428571 C11.1929293,15.1428571 10.8571429,14.6951419 10.8571429,14.1428571 C10.8571429,13.5905724 11.1929293,13.1428571 11.6071429,13.1428571 L11.6071429,13.1428571 Z M12,6 C11.4477153,6 11,5.55228475 11,5 L11,1 C11,0.44771525 11.4477153,0 12,0 C12.5522847,0 13,0.44771525 13,1 L13,5 C13,5.55228475 12.5522847,6 12,6 L12,6 Z M8,2 L10,2 L10,4 L8,4 L8,2 L8,2 Z M5.89285714,17.1428571 L7.39285714,17.1428571 C7.80707071,17.1428571 8.14285714,17.5905724 8.14285714,18.1428571 C8.14285714,18.6951419 7.80707071,19.1428571 7.39285714,19.1428571 L5.89285714,19.1428571 C5.47864358,19.1428571 5.14285714,18.6951419 5.14285714,18.1428571 C5.14285714,17.5905724 5.47864358,17.1428571 5.89285714,17.1428571 L5.89285714,17.1428571 Z M5.89285714,13.1428571 L7.39285714,13.1428571 C7.80707071,13.1428571 8.14285714,13.5905724 8.14285714,14.1428571 C8.14285714,14.6951419 7.80707071,15.1428571 7.39285714,15.1428571 L5.89285714,15.1428571 C5.47864358,15.1428571 5.14285714,14.6951419 5.14285714,14.1428571 C5.14285714,13.5905724 5.47864358,13.1428571 5.89285714,13.1428571 L5.89285714,13.1428571 Z M6,6 C5.44771525,6 5,5.55228475 5,5 L5,1 C5,0.44771525 5.44771525,0 6,0 C6.55228475,0 7,0.44771525 7,1 L7,5 C7,5.55228475 6.55228475,6 6,6 L6,6 Z" id="path-1"></path>
    </defs>
    <g id="Symbols" stroke="none" stroke-width="1" fill="none" fill-rule="evenodd">
        <g id="Icons/Calendar">
            <mask id="mask-2" fill="white">
                <use xlink:href="#path-1"></use>
            </mask>
            <use id="icon-calendar" fill="#F27E20" xlink:href="#path-1"></use>
        </g>
    </g>
</svg>