<?xml version="1.0" encoding="UTF-8"?>
<svg width="20px" height="20px" viewBox="0 0 20 20" version="1.1" xmlns="http://www.w3.org/2000/svg" xmlns:xlink="http://www.w3.org/1999/xlink">
    <!-- Generator: Sketch 46.2 (44496) - http://www.bohemiancoding.com/sketch -->
    <title>icon-rounded-outline-info</title>
    <desc>Created with Sketch.</desc>
    <defs></defs>
    <g id="Components" stroke="none" stroke-width="1" fill="none" fill-rule="evenodd">
        <g id="Popovers-and-tooltips" transform="translate(-216.000000, -416.000000)" fill="#444854">
            <g id="Popovers" transform="translate(200.000000, 270.000000)">
                <g id="Group" transform="translate(0.000000, 146.000000)">
                    <path d="M26,0 C20.4861538,0 16,4.48584615 16,10 C16,15.5141538 20.4861538,20 26,20 C31.5138462,20 36,15.5141538 36,10 C36,4.48584615 31.5138462,0 26,0 L26,0 Z M26,18.7692308 C21.1646154,18.7692308 17.2307692,14.8353846 17.2307692,10 C17.2307692,5.16461538 21.1646154,1.23076923 26,1.23076923 C30.8353846,1.23076923 34.7692308,5.16461538 34.7692308,10 C34.7692308,14.8353846 30.8353846,18.7692308 26,18.7692308 Z M26.0295859,7.04184615 C26.5980143,7.04184615 27.0588167,6.58104384 27.0588167,6.01261538 C27.0588167,5.44418693 26.5980143,4.98338462 26.0295859,4.98338462 C25.4611574,4.98338462 25.0003551,5.44418693 25.0003551,6.01261538 C25.0003551,6.58104384 25.4611574,7.04184615 26.0295859,7.04184615 Z M25.8883077,8.72061538 C25.5486154,8.72061538 25.2729231,8.99630769 25.2729231,9.336 L25.2729231,14.5667692 C25.2729231,14.9064615 25.5486154,15.1821538 25.8883077,15.1821538 C26.228,15.1821538 26.5036923,14.9064615 26.5036923,14.5667692 L26.5036923,9.336 C26.5036923,8.996 26.228,8.72061538 25.8883077,8.72061538 Z" id="icon-rounded-outline-info"></path>
                </g>
            </g>
        </g>
    </g>
</svg>